<svg width="680" height="560" viewBox="0 0 680 560" xmlns="http://www.w3.org/2000/svg" font-family="Arial, sans-serif">
  <defs>
    <marker id="arrow" viewBox="0 0 10 10" refX="8" refY="5" markerWidth="6" markerHeight="6" orient="auto-start-reverse">
      <path d="M2 1L8 5L2 9" fill="none" stroke="#444" stroke-width="1.5"/>
    </marker>
  </defs>
  <rect width="680" height="560" fill="#ffffff"/>
  <rect x="40" y="30" width="180" height="56" rx="8" fill="#EEEDFE" stroke="#534AB7" stroke-width="1"/>
  <text x="130" y="54" text-anchor="middle" font-size="14" font-weight="bold" fill="#26215C">GitHub</text>
  <text x="130" y="72" text-anchor="middle" font-size="12" fill="#3C3489">push to main</text>
  <rect x="260" y="30" width="200" height="56" rx="8" fill="#EEEDFE" stroke="#534AB7" stroke-width="1"/>
  <text x="360" y="54" text-anchor="middle" font-size="14" font-weight="bold" fill="#26215C">GitHub Actions</text>
  <text x="360" y="72" text-anchor="middle" font-size="12" fill="#3C3489">build, test, deploy</text>
  <line x1="220" y1="58" x2="258" y2="58" stroke="#444" stroke-width="1" marker-end="url(#arrow)"/>
  <line x1="360" y1="86" x2="360" y2="126" stroke="#444" stroke-width="1" marker-end="url(#arrow)"/>
  <text x="360" y="106" text-anchor="middle" font-size="12" fill="#555">SSH deploy</text>
  <rect x="120" y="126" width="440" height="290" rx="20" fill="#F1EFE8" stroke="#5F5E5A" stroke-width="1"/>
  <text x="140" y="152" font-size="14" font-weight="bold" fill="#2C2C2A">EC2 instance (t2.small, Ubuntu)</text>
  <rect x="150" y="175" width="180" height="56" rx="10" fill="#E6F1FB" stroke="#378ADD" stroke-width="1"/>
  <text x="240" y="199" text-anchor="middle" font-size="14" font-weight="bold" fill="#042C53">Nginx</text>
  <text x="240" y="217" text-anchor="middle" font-size="12" fill="#0C447C">port 80/443 proxy</text>
  <rect x="150" y="245" width="180" height="56" rx="10" fill="#E1F5EE" stroke="#1D9E75" stroke-width="1"/>
  <text x="240" y="269" text-anchor="middle" font-size="14" font-weight="bold" fill="#04342C">Node.js app</text>
  <text x="240" y="287" text-anchor="middle" font-size="12" fill="#085041">PM2, port 3000</text>
  <line x1="240" y1="231" x2="240" y2="243" stroke="#444" stroke-width="1" marker-end="url(#arrow)"/>
  <rect x="350" y="175" width="190" height="126" rx="10" fill="#FAECE7" stroke="#D85A30" stroke-width="1"/>
  <text x="445" y="200" text-anchor="middle" font-size="14" font-weight="bold" fill="#4A1B0C">Security group</text>
  <text x="445" y="218" text-anchor="middle" font-size="12" fill="#712B13">22, 80, 443 only</text>
  <text x="445" y="238" text-anchor="middle" font-size="14" font-weight="bold" fill="#4A1B0C">IAM role</text>
  <text x="445" y="256" text-anchor="middle" font-size="12" fill="#712B13">least-privilege S3 access</text>
  <rect x="150" y="330" width="380" height="60" rx="10" fill="#FAEEDA" stroke="#BA7517" stroke-width="1"/>
  <text x="340" y="354" text-anchor="middle" font-size="14" font-weight="bold" fill="#412402">CloudWatch agent</text>
  <text x="340" y="372" text-anchor="middle" font-size="12" fill="#854F0B">app logs + CPU/memory metrics</text>
  <line x1="240" y1="301" x2="240" y2="328" stroke="#444" stroke-width="1" marker-end="url(#arrow)"/>
  <line x1="530" y1="360" x2="600" y2="360" stroke="#444" stroke-width="1" marker-end="url(#arrow)"/>
  <text x="605" y="330" font-size="14" font-weight="bold" fill="#412402">CloudWatch</text>
  <text x="605" y="348" font-size="12" fill="#854F0B">dashboards</text>
  <text x="605" y="364" font-size="12" fill="#854F0B">and alarms</text>
  <line x1="240" y1="205" x2="80" y2="205" stroke="#444" stroke-width="1" marker-end="url(#arrow)"/>
  <text x="30" y="200" text-anchor="middle" font-size="14" font-weight="bold" fill="#2C2C2A">Users</text>
  <text x="30" y="216" text-anchor="middle" font-size="12" fill="#5F5E5A">HTTPS</text>
  <line x1="540" y1="230" x2="600" y2="230" stroke="#444" stroke-width="1" marker-end="url(#arrow)"/>
  <text x="605" y="220" font-size="14" font-weight="bold" fill="#04342C">S3 bucket</text>
  <text x="605" y="238" font-size="12" fill="#085041">backups /</text>
  <text x="605" y="254" font-size="12" fill="#085041">static assets</text>
  <text x="130" y="440" font-size="12" fill="#555">Legend</text>
  <rect x="130" y="450" width="14" height="14" rx="3" fill="#E6F1FB" stroke="#378ADD"/>
  <text x="150" y="461" font-size="12" fill="#333">Web/proxy layer</text>
  <rect x="280" y="450" width="14" height="14" rx="3" fill="#E1F5EE" stroke="#1D9E75"/>
  <text x="300" y="461" font-size="12" fill="#333">App/storage layer</text>
  <rect x="440" y="450" width="14" height="14" rx="3" fill="#FAECE7" stroke="#D85A30"/>
  <text x="460" y="461" font-size="12" fill="#333">Security/IAM</text>
  <rect x="580" y="450" width="14" height="14" rx="3" fill="#FAEEDA" stroke="#BA7517"/>
  <text x="600" y="461" font-size="12" fill="#333">Monitoring</text>
</svg>
